<mxfile host="app.diagrams.net" agent="Mozilla/5.0 (X11; Linux x86_64; rv:109.0) Gecko/20100101 Firefox/115.0" version="24.7.14">
  <diagram name="Page-1" id="1OcMtAadZxCLhPijZjP0">
    <mxGraphModel dx="830" dy="519" grid="0" gridSize="10" guides="1" tooltips="1" connect="1" arrows="1" fold="1" page="1" pageScale="1" pageWidth="850" pageHeight="1100" background="none" math="0" shadow="0">
      <root>
        <mxCell id="0" />
        <mxCell id="1" parent="0" />
        <mxCell id="vXvGqYuv_WJDdpfdfI8S-6" value="" style="edgeStyle=orthogonalEdgeStyle;rounded=0;orthogonalLoop=1;jettySize=auto;html=1;" edge="1" parent="1" source="vXvGqYuv_WJDdpfdfI8S-3" target="vXvGqYuv_WJDdpfdfI8S-5">
          <mxGeometry relative="1" as="geometry" />
        </mxCell>
        <mxCell id="vXvGqYuv_WJDdpfdfI8S-3" value="b, h" style="html=1;strokeWidth=2;shape=manualInput;whiteSpace=wrap;rounded=1;size=26;arcSize=11;" vertex="1" parent="1">
          <mxGeometry x="294.25" y="205" width="160.5" height="76" as="geometry" />
        </mxCell>
        <mxCell id="vXvGqYuv_WJDdpfdfI8S-15" value="" style="edgeStyle=orthogonalEdgeStyle;rounded=0;orthogonalLoop=1;jettySize=auto;html=1;" edge="1" parent="1" source="vXvGqYuv_WJDdpfdfI8S-5" target="vXvGqYuv_WJDdpfdfI8S-14">
          <mxGeometry relative="1" as="geometry" />
        </mxCell>
        <mxCell id="vXvGqYuv_WJDdpfdfI8S-5" value="s &amp;lt;- (b * h) / 2" style="rounded=0;whiteSpace=wrap;html=1;" vertex="1" parent="1">
          <mxGeometry x="303.25" y="335" width="142.5" height="69" as="geometry" />
        </mxCell>
        <mxCell id="vXvGqYuv_WJDdpfdfI8S-19" value="" style="edgeStyle=orthogonalEdgeStyle;rounded=0;orthogonalLoop=1;jettySize=auto;html=1;" edge="1" parent="1" source="vXvGqYuv_WJDdpfdfI8S-14" target="vXvGqYuv_WJDdpfdfI8S-18">
          <mxGeometry relative="1" as="geometry" />
        </mxCell>
        <mxCell id="vXvGqYuv_WJDdpfdfI8S-14" value="s" style="strokeWidth=2;html=1;shape=mxgraph.flowchart.display;whiteSpace=wrap;" vertex="1" parent="1">
          <mxGeometry x="324.5" y="451" width="100" height="60" as="geometry" />
        </mxCell>
        <mxCell id="vXvGqYuv_WJDdpfdfI8S-17" value="" style="edgeStyle=orthogonalEdgeStyle;rounded=0;orthogonalLoop=1;jettySize=auto;html=1;" edge="1" parent="1" source="vXvGqYuv_WJDdpfdfI8S-16" target="vXvGqYuv_WJDdpfdfI8S-3">
          <mxGeometry relative="1" as="geometry" />
        </mxCell>
        <mxCell id="vXvGqYuv_WJDdpfdfI8S-16" value="Start" style="strokeWidth=2;html=1;shape=mxgraph.flowchart.start_1;whiteSpace=wrap;" vertex="1" parent="1">
          <mxGeometry x="310.5" y="49" width="128" height="80" as="geometry" />
        </mxCell>
        <mxCell id="vXvGqYuv_WJDdpfdfI8S-18" value="End" style="strokeWidth=2;html=1;shape=mxgraph.flowchart.start_1;whiteSpace=wrap;" vertex="1" parent="1">
          <mxGeometry x="310.5" y="550" width="128" height="80" as="geometry" />
        </mxCell>
      </root>
    </mxGraphModel>
  </diagram>
</mxfile>
